<mxfile host="Electron" agent="Mozilla/5.0 (Windows NT 10.0; Win64; x64) AppleWebKit/537.36 (KHTML, like Gecko) draw.io/24.7.17 Chrome/128.0.6613.36 Electron/32.0.1 Safari/537.36" version="24.7.17">
  <diagram name="Страница — 1" id="VttRE63Wa7ATxKXdc2pP">
    <mxGraphModel dx="1843" dy="887" grid="1" gridSize="10" guides="1" tooltips="1" connect="1" arrows="1" fold="1" page="1" pageScale="1" pageWidth="827" pageHeight="1169" math="0" shadow="0">
      <root>
        <mxCell id="0" />
        <mxCell id="1" parent="0" />
        <mxCell id="udrvRcQNJmiuMP_l4bdY-1" value="viewer" style="swimlane;whiteSpace=wrap;html=1;" vertex="1" parent="1">
          <mxGeometry x="100" y="80" width="200" height="1970" as="geometry" />
        </mxCell>
        <mxCell id="udrvRcQNJmiuMP_l4bdY-2" value="" style="endArrow=classic;html=1;rounded=0;" edge="1" parent="udrvRcQNJmiuMP_l4bdY-1">
          <mxGeometry width="50" height="50" relative="1" as="geometry">
            <mxPoint x="-20" y="60" as="sourcePoint" />
            <mxPoint x="200" y="60" as="targetPoint" />
          </mxGeometry>
        </mxCell>
        <mxCell id="udrvRcQNJmiuMP_l4bdY-3" value="пользователь входит в личный кабинет" style="edgeLabel;html=1;align=center;verticalAlign=middle;resizable=0;points=[];" vertex="1" connectable="0" parent="udrvRcQNJmiuMP_l4bdY-2">
          <mxGeometry x="-0.1018" y="-1" relative="1" as="geometry">
            <mxPoint x="11" y="-21" as="offset" />
          </mxGeometry>
        </mxCell>
        <mxCell id="udrvRcQNJmiuMP_l4bdY-4" value="страница для выбора запроса" style="rounded=0;whiteSpace=wrap;html=1;" vertex="1" parent="udrvRcQNJmiuMP_l4bdY-1">
          <mxGeometry x="30" y="250" width="120" height="60" as="geometry" />
        </mxCell>
        <mxCell id="udrvRcQNJmiuMP_l4bdY-5" value="страница для выборов параметров" style="rounded=0;whiteSpace=wrap;html=1;" vertex="1" parent="udrvRcQNJmiuMP_l4bdY-1">
          <mxGeometry x="30" y="530" width="110" height="110" as="geometry" />
        </mxCell>
        <mxCell id="udrvRcQNJmiuMP_l4bdY-6" value="страница с результатом" style="rounded=0;whiteSpace=wrap;html=1;" vertex="1" parent="udrvRcQNJmiuMP_l4bdY-1">
          <mxGeometry x="30" y="820" width="120" height="60" as="geometry" />
        </mxCell>
        <mxCell id="udrvRcQNJmiuMP_l4bdY-7" value="" style="endArrow=classic;html=1;rounded=0;" edge="1" parent="udrvRcQNJmiuMP_l4bdY-1">
          <mxGeometry width="50" height="50" relative="1" as="geometry">
            <mxPoint x="242" y="1009" as="sourcePoint" />
            <mxPoint x="162" y="1009" as="targetPoint" />
          </mxGeometry>
        </mxCell>
        <mxCell id="udrvRcQNJmiuMP_l4bdY-8" value="переадресация" style="edgeLabel;html=1;align=center;verticalAlign=middle;resizable=0;points=[];" vertex="1" connectable="0" parent="udrvRcQNJmiuMP_l4bdY-7">
          <mxGeometry x="-0.07" y="1" relative="1" as="geometry">
            <mxPoint x="7" y="-21" as="offset" />
          </mxGeometry>
        </mxCell>
        <mxCell id="udrvRcQNJmiuMP_l4bdY-9" value="" style="endArrow=classic;html=1;rounded=0;exitX=1.011;exitY=0.884;exitDx=0;exitDy=0;exitPerimeter=0;" edge="1" parent="udrvRcQNJmiuMP_l4bdY-1" source="udrvRcQNJmiuMP_l4bdY-11">
          <mxGeometry width="50" height="50" relative="1" as="geometry">
            <mxPoint x="312" y="999" as="sourcePoint" />
            <mxPoint x="250" y="1076" as="targetPoint" />
          </mxGeometry>
        </mxCell>
        <mxCell id="udrvRcQNJmiuMP_l4bdY-10" value="данные для запроса" style="edgeLabel;html=1;align=center;verticalAlign=middle;resizable=0;points=[];" vertex="1" connectable="0" parent="udrvRcQNJmiuMP_l4bdY-9">
          <mxGeometry x="0.2178" y="-2" relative="1" as="geometry">
            <mxPoint x="4" y="-17" as="offset" />
          </mxGeometry>
        </mxCell>
        <mxCell id="udrvRcQNJmiuMP_l4bdY-11" value="страница для выборов параметров" style="rounded=0;whiteSpace=wrap;html=1;" vertex="1" parent="udrvRcQNJmiuMP_l4bdY-1">
          <mxGeometry x="52" y="979" width="110" height="110" as="geometry" />
        </mxCell>
        <mxCell id="udrvRcQNJmiuMP_l4bdY-12" value="controller" style="swimlane;whiteSpace=wrap;html=1;" vertex="1" parent="1">
          <mxGeometry x="300" y="80" width="160" height="1970" as="geometry" />
        </mxCell>
        <mxCell id="udrvRcQNJmiuMP_l4bdY-13" value="" style="endArrow=classic;html=1;rounded=0;" edge="1" parent="udrvRcQNJmiuMP_l4bdY-12">
          <mxGeometry width="50" height="50" relative="1" as="geometry">
            <mxPoint x="100" y="60" as="sourcePoint" />
            <mxPoint x="190" y="60" as="targetPoint" />
          </mxGeometry>
        </mxCell>
        <mxCell id="udrvRcQNJmiuMP_l4bdY-14" value="private_data()" style="edgeLabel;html=1;align=center;verticalAlign=middle;resizable=0;points=[];" vertex="1" connectable="0" parent="udrvRcQNJmiuMP_l4bdY-13">
          <mxGeometry x="-0.5156" y="3" relative="1" as="geometry">
            <mxPoint y="-17" as="offset" />
          </mxGeometry>
        </mxCell>
        <mxCell id="udrvRcQNJmiuMP_l4bdY-15" value="" style="endArrow=classic;html=1;rounded=0;" edge="1" parent="udrvRcQNJmiuMP_l4bdY-12">
          <mxGeometry width="50" height="50" relative="1" as="geometry">
            <mxPoint x="100" y="350" as="sourcePoint" />
            <mxPoint x="190" y="350" as="targetPoint" />
            <Array as="points">
              <mxPoint x="170" y="350" />
            </Array>
          </mxGeometry>
        </mxCell>
        <mxCell id="udrvRcQNJmiuMP_l4bdY-16" value="find_names()" style="edgeLabel;html=1;align=center;verticalAlign=middle;resizable=0;points=[];" vertex="1" connectable="0" parent="udrvRcQNJmiuMP_l4bdY-15">
          <mxGeometry x="-0.0489" y="4" relative="1" as="geometry">
            <mxPoint x="-3" y="-6" as="offset" />
          </mxGeometry>
        </mxCell>
        <mxCell id="udrvRcQNJmiuMP_l4bdY-17" value="model" style="swimlane;whiteSpace=wrap;html=1;" vertex="1" parent="1">
          <mxGeometry x="460" y="80" width="231" height="1970" as="geometry" />
        </mxCell>
        <mxCell id="udrvRcQNJmiuMP_l4bdY-18" value="sql_provider" style="rounded=0;whiteSpace=wrap;html=1;" vertex="1" parent="udrvRcQNJmiuMP_l4bdY-17">
          <mxGeometry x="30" y="40" width="120" height="60" as="geometry" />
        </mxCell>
        <mxCell id="udrvRcQNJmiuMP_l4bdY-19" value="__enter__&lt;br&gt;DBconnection" style="rounded=0;whiteSpace=wrap;html=1;" vertex="1" parent="udrvRcQNJmiuMP_l4bdY-17">
          <mxGeometry x="30" y="140" width="120" height="60" as="geometry" />
        </mxCell>
        <mxCell id="udrvRcQNJmiuMP_l4bdY-20" value="db_config&amp;nbsp;&lt;br&gt;sql_statment" style="edgeLabel;html=1;align=center;verticalAlign=middle;resizable=0;points=[];" vertex="1" connectable="0" parent="udrvRcQNJmiuMP_l4bdY-17">
          <mxGeometry x="50" y="120" as="geometry" />
        </mxCell>
        <mxCell id="udrvRcQNJmiuMP_l4bdY-21" value="" style="endArrow=classic;html=1;rounded=0;exitX=0.5;exitY=1;exitDx=0;exitDy=0;" edge="1" parent="udrvRcQNJmiuMP_l4bdY-17">
          <mxGeometry width="50" height="50" relative="1" as="geometry">
            <mxPoint x="89.5" y="200" as="sourcePoint" />
            <mxPoint x="89.5" y="250" as="targetPoint" />
          </mxGeometry>
        </mxCell>
        <mxCell id="udrvRcQNJmiuMP_l4bdY-22" value="doctor_name&lt;br&gt;specialization&lt;br&gt;name_department" style="rounded=0;whiteSpace=wrap;html=1;" vertex="1" parent="udrvRcQNJmiuMP_l4bdY-17">
          <mxGeometry x="30" y="250" width="120" height="60" as="geometry" />
        </mxCell>
        <mxCell id="udrvRcQNJmiuMP_l4bdY-23" value="sql_provider" style="rounded=0;whiteSpace=wrap;html=1;" vertex="1" parent="udrvRcQNJmiuMP_l4bdY-17">
          <mxGeometry x="30" y="320" width="120" height="60" as="geometry" />
        </mxCell>
        <mxCell id="udrvRcQNJmiuMP_l4bdY-24" value="__enter__&lt;br&gt;DBconnection" style="rounded=0;whiteSpace=wrap;html=1;" vertex="1" parent="udrvRcQNJmiuMP_l4bdY-17">
          <mxGeometry x="30" y="420" width="120" height="60" as="geometry" />
        </mxCell>
        <mxCell id="udrvRcQNJmiuMP_l4bdY-25" value="db_config&amp;nbsp;&lt;br&gt;sql_script" style="edgeLabel;html=1;align=center;verticalAlign=middle;resizable=0;points=[];" vertex="1" connectable="0" parent="udrvRcQNJmiuMP_l4bdY-17">
          <mxGeometry x="50" y="400" as="geometry" />
        </mxCell>
        <mxCell id="udrvRcQNJmiuMP_l4bdY-26" value="" style="endArrow=classic;html=1;rounded=0;exitX=0.5;exitY=1;exitDx=0;exitDy=0;" edge="1" parent="udrvRcQNJmiuMP_l4bdY-17">
          <mxGeometry width="50" height="50" relative="1" as="geometry">
            <mxPoint x="89.5" y="480" as="sourcePoint" />
            <mxPoint x="89.5" y="530" as="targetPoint" />
          </mxGeometry>
        </mxCell>
        <mxCell id="udrvRcQNJmiuMP_l4bdY-27" value="result" style="rounded=0;whiteSpace=wrap;html=1;" vertex="1" parent="udrvRcQNJmiuMP_l4bdY-17">
          <mxGeometry x="30" y="530" width="120" height="60" as="geometry" />
        </mxCell>
        <mxCell id="udrvRcQNJmiuMP_l4bdY-28" value="" style="endArrow=classic;html=1;rounded=0;exitX=0.5;exitY=1;exitDx=0;exitDy=0;" edge="1" parent="udrvRcQNJmiuMP_l4bdY-17" source="udrvRcQNJmiuMP_l4bdY-23">
          <mxGeometry width="50" height="50" relative="1" as="geometry">
            <mxPoint x="130" y="490" as="sourcePoint" />
            <mxPoint x="90" y="420" as="targetPoint" />
          </mxGeometry>
        </mxCell>
        <mxCell id="udrvRcQNJmiuMP_l4bdY-29" value="" style="endArrow=classic;html=1;rounded=0;" edge="1" parent="udrvRcQNJmiuMP_l4bdY-17">
          <mxGeometry width="50" height="50" relative="1" as="geometry">
            <mxPoint x="150" y="449.5" as="sourcePoint" />
            <mxPoint x="260" y="449.5" as="targetPoint" />
          </mxGeometry>
        </mxCell>
        <mxCell id="udrvRcQNJmiuMP_l4bdY-30" value="подключение к бд" style="edgeLabel;html=1;align=center;verticalAlign=middle;resizable=0;points=[];" vertex="1" connectable="0" parent="udrvRcQNJmiuMP_l4bdY-29">
          <mxGeometry x="0.145" y="3" relative="1" as="geometry">
            <mxPoint x="-13" y="-7" as="offset" />
          </mxGeometry>
        </mxCell>
        <mxCell id="udrvRcQNJmiuMP_l4bdY-31" value="" style="endArrow=classic;html=1;rounded=0;exitX=0;exitY=0.5;exitDx=0;exitDy=0;" edge="1" parent="udrvRcQNJmiuMP_l4bdY-17" source="udrvRcQNJmiuMP_l4bdY-27">
          <mxGeometry width="50" height="50" relative="1" as="geometry">
            <mxPoint x="-70" y="550" as="sourcePoint" />
            <mxPoint x="-50" y="560" as="targetPoint" />
          </mxGeometry>
        </mxCell>
        <mxCell id="udrvRcQNJmiuMP_l4bdY-32" value="names" style="edgeLabel;html=1;align=center;verticalAlign=middle;resizable=0;points=[];" vertex="1" connectable="0" parent="udrvRcQNJmiuMP_l4bdY-31">
          <mxGeometry x="0.055" y="-1" relative="1" as="geometry">
            <mxPoint y="-9" as="offset" />
          </mxGeometry>
        </mxCell>
        <mxCell id="udrvRcQNJmiuMP_l4bdY-33" value="" style="endArrow=classic;html=1;rounded=0;" edge="1" parent="udrvRcQNJmiuMP_l4bdY-17">
          <mxGeometry width="50" height="50" relative="1" as="geometry">
            <mxPoint x="-35" y="1080" as="sourcePoint" />
            <mxPoint x="55" y="1080" as="targetPoint" />
          </mxGeometry>
        </mxCell>
        <mxCell id="udrvRcQNJmiuMP_l4bdY-34" value="find_floor()" style="edgeLabel;html=1;align=center;verticalAlign=middle;resizable=0;points=[];" vertex="1" connectable="0" parent="udrvRcQNJmiuMP_l4bdY-33">
          <mxGeometry x="-0.5156" y="3" relative="1" as="geometry">
            <mxPoint y="-17" as="offset" />
          </mxGeometry>
        </mxCell>
        <mxCell id="udrvRcQNJmiuMP_l4bdY-35" value="sql_provider" style="rounded=0;whiteSpace=wrap;html=1;" vertex="1" parent="udrvRcQNJmiuMP_l4bdY-17">
          <mxGeometry x="55" y="1060" width="120" height="60" as="geometry" />
        </mxCell>
        <mxCell id="udrvRcQNJmiuMP_l4bdY-36" value="__enter__&lt;br&gt;DBconnection" style="rounded=0;whiteSpace=wrap;html=1;" vertex="1" parent="udrvRcQNJmiuMP_l4bdY-17">
          <mxGeometry x="55" y="1160" width="120" height="60" as="geometry" />
        </mxCell>
        <mxCell id="udrvRcQNJmiuMP_l4bdY-37" value="db_config&amp;nbsp;&lt;br&gt;sql_statment" style="edgeLabel;html=1;align=center;verticalAlign=middle;resizable=0;points=[];" vertex="1" connectable="0" parent="udrvRcQNJmiuMP_l4bdY-17">
          <mxGeometry x="75" y="1140" as="geometry" />
        </mxCell>
        <mxCell id="udrvRcQNJmiuMP_l4bdY-38" value="" style="endArrow=classic;html=1;rounded=0;exitX=0.5;exitY=1;exitDx=0;exitDy=0;" edge="1" parent="udrvRcQNJmiuMP_l4bdY-17">
          <mxGeometry width="50" height="50" relative="1" as="geometry">
            <mxPoint x="114.5" y="1220" as="sourcePoint" />
            <mxPoint x="114.5" y="1270" as="targetPoint" />
          </mxGeometry>
        </mxCell>
        <mxCell id="udrvRcQNJmiuMP_l4bdY-39" value="None" style="rounded=0;whiteSpace=wrap;html=1;" vertex="1" parent="udrvRcQNJmiuMP_l4bdY-17">
          <mxGeometry x="55" y="1270" width="120" height="60" as="geometry" />
        </mxCell>
        <mxCell id="udrvRcQNJmiuMP_l4bdY-40" value="" style="endArrow=classic;html=1;rounded=0;exitX=0.5;exitY=1;exitDx=0;exitDy=0;" edge="1" parent="udrvRcQNJmiuMP_l4bdY-17" source="udrvRcQNJmiuMP_l4bdY-35">
          <mxGeometry width="50" height="50" relative="1" as="geometry">
            <mxPoint x="155" y="1230" as="sourcePoint" />
            <mxPoint x="115" y="1160" as="targetPoint" />
          </mxGeometry>
        </mxCell>
        <mxCell id="udrvRcQNJmiuMP_l4bdY-41" value="подключение к бд" style="edgeLabel;html=1;align=center;verticalAlign=middle;resizable=0;points=[];" vertex="1" connectable="0" parent="udrvRcQNJmiuMP_l4bdY-17">
          <mxGeometry x="225" y="1179.5" as="geometry" />
        </mxCell>
        <mxCell id="udrvRcQNJmiuMP_l4bdY-42" value="" style="endArrow=classic;html=1;rounded=0;exitX=0;exitY=0.5;exitDx=0;exitDy=0;" edge="1" parent="udrvRcQNJmiuMP_l4bdY-17" source="udrvRcQNJmiuMP_l4bdY-39">
          <mxGeometry width="50" height="50" relative="1" as="geometry">
            <mxPoint x="-45" y="1290" as="sourcePoint" />
            <mxPoint x="-25" y="1300" as="targetPoint" />
          </mxGeometry>
        </mxCell>
        <mxCell id="udrvRcQNJmiuMP_l4bdY-43" value="сообщение о ненахождения&lt;br&gt;кабинета" style="edgeLabel;html=1;align=center;verticalAlign=middle;resizable=0;points=[];" vertex="1" connectable="0" parent="udrvRcQNJmiuMP_l4bdY-42">
          <mxGeometry x="0.23" y="4" relative="1" as="geometry">
            <mxPoint x="-11" y="-34" as="offset" />
          </mxGeometry>
        </mxCell>
        <mxCell id="udrvRcQNJmiuMP_l4bdY-44" value="" style="endArrow=classic;html=1;rounded=0;" edge="1" parent="udrvRcQNJmiuMP_l4bdY-17">
          <mxGeometry width="50" height="50" relative="1" as="geometry">
            <mxPoint x="-120" y="1300" as="sourcePoint" />
            <mxPoint x="-190" y="1300" as="targetPoint" />
          </mxGeometry>
        </mxCell>
        <mxCell id="udrvRcQNJmiuMP_l4bdY-45" value="страница с результатом" style="rounded=0;whiteSpace=wrap;html=1;" vertex="1" parent="udrvRcQNJmiuMP_l4bdY-17">
          <mxGeometry x="-310" y="1270" width="120" height="60" as="geometry" />
        </mxCell>
        <mxCell id="udrvRcQNJmiuMP_l4bdY-46" value="" style="endArrow=classic;html=1;rounded=0;" edge="1" parent="udrvRcQNJmiuMP_l4bdY-17">
          <mxGeometry width="50" height="50" relative="1" as="geometry">
            <mxPoint x="175" y="1189.5" as="sourcePoint" />
            <mxPoint x="285" y="1189.5" as="targetPoint" />
          </mxGeometry>
        </mxCell>
        <mxCell id="udrvRcQNJmiuMP_l4bdY-47" value="подключение к бд" style="edgeLabel;html=1;align=center;verticalAlign=middle;resizable=0;points=[];" vertex="1" connectable="0" parent="udrvRcQNJmiuMP_l4bdY-46">
          <mxGeometry x="0.145" y="3" relative="1" as="geometry">
            <mxPoint x="-13" y="-7" as="offset" />
          </mxGeometry>
        </mxCell>
        <mxCell id="udrvRcQNJmiuMP_l4bdY-48" value="sql_provider" style="rounded=0;whiteSpace=wrap;html=1;" vertex="1" parent="udrvRcQNJmiuMP_l4bdY-17">
          <mxGeometry x="53.5" y="1370" width="120" height="60" as="geometry" />
        </mxCell>
        <mxCell id="udrvRcQNJmiuMP_l4bdY-49" value="страница для выборов параметров" style="rounded=0;whiteSpace=wrap;html=1;" vertex="1" parent="udrvRcQNJmiuMP_l4bdY-17">
          <mxGeometry x="-304" y="1580" width="110" height="110" as="geometry" />
        </mxCell>
        <mxCell id="udrvRcQNJmiuMP_l4bdY-50" value="страница с результатом" style="rounded=0;whiteSpace=wrap;html=1;" vertex="1" parent="udrvRcQNJmiuMP_l4bdY-17">
          <mxGeometry x="-304" y="1870" width="120" height="60" as="geometry" />
        </mxCell>
        <mxCell id="udrvRcQNJmiuMP_l4bdY-51" value="" style="endArrow=classic;html=1;rounded=0;" edge="1" parent="udrvRcQNJmiuMP_l4bdY-17">
          <mxGeometry width="50" height="50" relative="1" as="geometry">
            <mxPoint x="-34" y="1400" as="sourcePoint" />
            <mxPoint x="56" y="1400" as="targetPoint" />
            <Array as="points">
              <mxPoint x="36" y="1400" />
            </Array>
          </mxGeometry>
        </mxCell>
        <mxCell id="udrvRcQNJmiuMP_l4bdY-52" value="find_specialization()" style="edgeLabel;html=1;align=center;verticalAlign=middle;resizable=0;points=[];" vertex="1" connectable="0" parent="udrvRcQNJmiuMP_l4bdY-51">
          <mxGeometry x="-0.0489" y="4" relative="1" as="geometry">
            <mxPoint x="-3" y="-6" as="offset" />
          </mxGeometry>
        </mxCell>
        <mxCell id="udrvRcQNJmiuMP_l4bdY-53" value="__enter__&lt;br&gt;DBconnection" style="rounded=0;whiteSpace=wrap;html=1;" vertex="1" parent="udrvRcQNJmiuMP_l4bdY-17">
          <mxGeometry x="56" y="1470" width="120" height="60" as="geometry" />
        </mxCell>
        <mxCell id="udrvRcQNJmiuMP_l4bdY-54" value="db_config&amp;nbsp;&lt;br&gt;sql_script" style="edgeLabel;html=1;align=center;verticalAlign=middle;resizable=0;points=[];" vertex="1" connectable="0" parent="udrvRcQNJmiuMP_l4bdY-17">
          <mxGeometry x="76" y="1450" as="geometry" />
        </mxCell>
        <mxCell id="udrvRcQNJmiuMP_l4bdY-55" value="" style="endArrow=classic;html=1;rounded=0;exitX=0.5;exitY=1;exitDx=0;exitDy=0;" edge="1" parent="udrvRcQNJmiuMP_l4bdY-17">
          <mxGeometry width="50" height="50" relative="1" as="geometry">
            <mxPoint x="115.5" y="1530" as="sourcePoint" />
            <mxPoint x="115.5" y="1580" as="targetPoint" />
          </mxGeometry>
        </mxCell>
        <mxCell id="udrvRcQNJmiuMP_l4bdY-56" value="все возможные специализации" style="rounded=0;whiteSpace=wrap;html=1;" vertex="1" parent="udrvRcQNJmiuMP_l4bdY-17">
          <mxGeometry x="56" y="1580" width="120" height="60" as="geometry" />
        </mxCell>
        <mxCell id="udrvRcQNJmiuMP_l4bdY-57" value="" style="endArrow=classic;html=1;rounded=0;exitX=0.5;exitY=1;exitDx=0;exitDy=0;" edge="1" parent="udrvRcQNJmiuMP_l4bdY-17">
          <mxGeometry width="50" height="50" relative="1" as="geometry">
            <mxPoint x="116" y="1430" as="sourcePoint" />
            <mxPoint x="116" y="1470" as="targetPoint" />
          </mxGeometry>
        </mxCell>
        <mxCell id="udrvRcQNJmiuMP_l4bdY-58" value="подключение к бд" style="edgeLabel;html=1;align=center;verticalAlign=middle;resizable=0;points=[];" vertex="1" connectable="0" parent="udrvRcQNJmiuMP_l4bdY-17">
          <mxGeometry x="226" y="1489.5" as="geometry" />
        </mxCell>
        <mxCell id="udrvRcQNJmiuMP_l4bdY-59" value="" style="endArrow=classic;html=1;rounded=0;exitX=0;exitY=0.5;exitDx=0;exitDy=0;" edge="1" parent="udrvRcQNJmiuMP_l4bdY-17" source="udrvRcQNJmiuMP_l4bdY-56">
          <mxGeometry width="50" height="50" relative="1" as="geometry">
            <mxPoint x="-44" y="1600" as="sourcePoint" />
            <mxPoint x="-24" y="1610" as="targetPoint" />
          </mxGeometry>
        </mxCell>
        <mxCell id="udrvRcQNJmiuMP_l4bdY-60" value="specialization" style="edgeLabel;html=1;align=center;verticalAlign=middle;resizable=0;points=[];" vertex="1" connectable="0" parent="udrvRcQNJmiuMP_l4bdY-59">
          <mxGeometry x="0.055" y="-1" relative="1" as="geometry">
            <mxPoint y="-9" as="offset" />
          </mxGeometry>
        </mxCell>
        <mxCell id="udrvRcQNJmiuMP_l4bdY-61" value="" style="endArrow=classic;html=1;rounded=0;" edge="1" parent="udrvRcQNJmiuMP_l4bdY-17">
          <mxGeometry width="50" height="50" relative="1" as="geometry">
            <mxPoint x="-114" y="1610" as="sourcePoint" />
            <mxPoint x="-194" y="1610" as="targetPoint" />
          </mxGeometry>
        </mxCell>
        <mxCell id="udrvRcQNJmiuMP_l4bdY-62" value="переадресация" style="edgeLabel;html=1;align=center;verticalAlign=middle;resizable=0;points=[];" vertex="1" connectable="0" parent="udrvRcQNJmiuMP_l4bdY-61">
          <mxGeometry x="-0.07" y="1" relative="1" as="geometry">
            <mxPoint x="7" y="-21" as="offset" />
          </mxGeometry>
        </mxCell>
        <mxCell id="udrvRcQNJmiuMP_l4bdY-63" value="" style="endArrow=classic;html=1;rounded=0;exitX=1.011;exitY=0.884;exitDx=0;exitDy=0;exitPerimeter=0;" edge="1" parent="udrvRcQNJmiuMP_l4bdY-17" source="udrvRcQNJmiuMP_l4bdY-49">
          <mxGeometry width="50" height="50" relative="1" as="geometry">
            <mxPoint x="-44" y="1600" as="sourcePoint" />
            <mxPoint x="-94" y="1680" as="targetPoint" />
          </mxGeometry>
        </mxCell>
        <mxCell id="udrvRcQNJmiuMP_l4bdY-64" value="данные для запроса" style="edgeLabel;html=1;align=center;verticalAlign=middle;resizable=0;points=[];" vertex="1" connectable="0" parent="udrvRcQNJmiuMP_l4bdY-63">
          <mxGeometry x="0.2178" y="-2" relative="1" as="geometry">
            <mxPoint x="5" y="-17" as="offset" />
          </mxGeometry>
        </mxCell>
        <mxCell id="udrvRcQNJmiuMP_l4bdY-65" value="" style="endArrow=classic;html=1;rounded=0;" edge="1" parent="udrvRcQNJmiuMP_l4bdY-17">
          <mxGeometry width="50" height="50" relative="1" as="geometry">
            <mxPoint x="-29" y="1680" as="sourcePoint" />
            <mxPoint x="61" y="1680" as="targetPoint" />
          </mxGeometry>
        </mxCell>
        <mxCell id="udrvRcQNJmiuMP_l4bdY-66" value="find_doctors()" style="edgeLabel;html=1;align=center;verticalAlign=middle;resizable=0;points=[];" vertex="1" connectable="0" parent="udrvRcQNJmiuMP_l4bdY-65">
          <mxGeometry x="-0.5156" y="3" relative="1" as="geometry">
            <mxPoint y="-17" as="offset" />
          </mxGeometry>
        </mxCell>
        <mxCell id="udrvRcQNJmiuMP_l4bdY-67" value="sql_provider" style="rounded=0;whiteSpace=wrap;html=1;" vertex="1" parent="udrvRcQNJmiuMP_l4bdY-17">
          <mxGeometry x="61" y="1660" width="120" height="60" as="geometry" />
        </mxCell>
        <mxCell id="udrvRcQNJmiuMP_l4bdY-68" value="__enter__&lt;br&gt;DBconnection" style="rounded=0;whiteSpace=wrap;html=1;" vertex="1" parent="udrvRcQNJmiuMP_l4bdY-17">
          <mxGeometry x="61" y="1760" width="120" height="60" as="geometry" />
        </mxCell>
        <mxCell id="udrvRcQNJmiuMP_l4bdY-69" value="db_config&amp;nbsp;&lt;br&gt;sql_statment" style="edgeLabel;html=1;align=center;verticalAlign=middle;resizable=0;points=[];" vertex="1" connectable="0" parent="udrvRcQNJmiuMP_l4bdY-17">
          <mxGeometry x="81" y="1740" as="geometry" />
        </mxCell>
        <mxCell id="udrvRcQNJmiuMP_l4bdY-70" value="" style="endArrow=classic;html=1;rounded=0;exitX=0.5;exitY=1;exitDx=0;exitDy=0;" edge="1" parent="udrvRcQNJmiuMP_l4bdY-17">
          <mxGeometry width="50" height="50" relative="1" as="geometry">
            <mxPoint x="120.5" y="1820" as="sourcePoint" />
            <mxPoint x="120.5" y="1870" as="targetPoint" />
          </mxGeometry>
        </mxCell>
        <mxCell id="udrvRcQNJmiuMP_l4bdY-71" value="все возможные доктора" style="rounded=0;whiteSpace=wrap;html=1;" vertex="1" parent="udrvRcQNJmiuMP_l4bdY-17">
          <mxGeometry x="61" y="1870" width="120" height="60" as="geometry" />
        </mxCell>
        <mxCell id="udrvRcQNJmiuMP_l4bdY-72" value="" style="endArrow=classic;html=1;rounded=0;exitX=0.5;exitY=1;exitDx=0;exitDy=0;" edge="1" parent="udrvRcQNJmiuMP_l4bdY-17" source="udrvRcQNJmiuMP_l4bdY-67">
          <mxGeometry width="50" height="50" relative="1" as="geometry">
            <mxPoint x="161" y="1830" as="sourcePoint" />
            <mxPoint x="121" y="1760" as="targetPoint" />
          </mxGeometry>
        </mxCell>
        <mxCell id="udrvRcQNJmiuMP_l4bdY-73" value="подключение к бд" style="edgeLabel;html=1;align=center;verticalAlign=middle;resizable=0;points=[];" vertex="1" connectable="0" parent="udrvRcQNJmiuMP_l4bdY-17">
          <mxGeometry x="231" y="1779.5" as="geometry" />
        </mxCell>
        <mxCell id="udrvRcQNJmiuMP_l4bdY-74" value="" style="endArrow=classic;html=1;rounded=0;exitX=0;exitY=0.5;exitDx=0;exitDy=0;" edge="1" parent="udrvRcQNJmiuMP_l4bdY-17" source="udrvRcQNJmiuMP_l4bdY-71">
          <mxGeometry width="50" height="50" relative="1" as="geometry">
            <mxPoint x="-39" y="1890" as="sourcePoint" />
            <mxPoint x="-19" y="1900" as="targetPoint" />
          </mxGeometry>
        </mxCell>
        <mxCell id="udrvRcQNJmiuMP_l4bdY-75" value="сохрание данных в &lt;br&gt;переменную &lt;br&gt;result" style="edgeLabel;html=1;align=center;verticalAlign=middle;resizable=0;points=[];" vertex="1" connectable="0" parent="udrvRcQNJmiuMP_l4bdY-74">
          <mxGeometry x="0.23" y="4" relative="1" as="geometry">
            <mxPoint x="-11" y="-34" as="offset" />
          </mxGeometry>
        </mxCell>
        <mxCell id="udrvRcQNJmiuMP_l4bdY-76" value="" style="endArrow=classic;html=1;rounded=0;" edge="1" parent="udrvRcQNJmiuMP_l4bdY-17">
          <mxGeometry width="50" height="50" relative="1" as="geometry">
            <mxPoint x="-114" y="1900" as="sourcePoint" />
            <mxPoint x="-184" y="1900" as="targetPoint" />
          </mxGeometry>
        </mxCell>
        <mxCell id="udrvRcQNJmiuMP_l4bdY-77" value="" style="endArrow=classic;html=1;rounded=0;" edge="1" parent="udrvRcQNJmiuMP_l4bdY-17">
          <mxGeometry width="50" height="50" relative="1" as="geometry">
            <mxPoint x="180.5" y="1789.5" as="sourcePoint" />
            <mxPoint x="290.5" y="1789.5" as="targetPoint" />
          </mxGeometry>
        </mxCell>
        <mxCell id="udrvRcQNJmiuMP_l4bdY-78" value="подключение к бд" style="edgeLabel;html=1;align=center;verticalAlign=middle;resizable=0;points=[];" vertex="1" connectable="0" parent="udrvRcQNJmiuMP_l4bdY-77">
          <mxGeometry x="0.145" y="3" relative="1" as="geometry">
            <mxPoint x="-13" y="-7" as="offset" />
          </mxGeometry>
        </mxCell>
        <mxCell id="udrvRcQNJmiuMP_l4bdY-79" value="" style="endArrow=classic;html=1;rounded=0;" edge="1" parent="udrvRcQNJmiuMP_l4bdY-17">
          <mxGeometry width="50" height="50" relative="1" as="geometry">
            <mxPoint x="173.5" y="1499.5" as="sourcePoint" />
            <mxPoint x="283.5" y="1499.5" as="targetPoint" />
          </mxGeometry>
        </mxCell>
        <mxCell id="udrvRcQNJmiuMP_l4bdY-80" value="подключение к бд" style="edgeLabel;html=1;align=center;verticalAlign=middle;resizable=0;points=[];" vertex="1" connectable="0" parent="udrvRcQNJmiuMP_l4bdY-79">
          <mxGeometry x="0.145" y="3" relative="1" as="geometry">
            <mxPoint x="-13" y="-7" as="offset" />
          </mxGeometry>
        </mxCell>
        <mxCell id="udrvRcQNJmiuMP_l4bdY-81" value="" style="endArrow=classic;html=1;rounded=0;" edge="1" parent="udrvRcQNJmiuMP_l4bdY-17">
          <mxGeometry width="50" height="50" relative="1" as="geometry">
            <mxPoint x="-384" y="1400" as="sourcePoint" />
            <mxPoint x="-94" y="1400" as="targetPoint" />
          </mxGeometry>
        </mxCell>
        <mxCell id="udrvRcQNJmiuMP_l4bdY-82" value="переход на findSpecialization" style="edgeLabel;html=1;align=center;verticalAlign=middle;resizable=0;points=[];" vertex="1" connectable="0" parent="udrvRcQNJmiuMP_l4bdY-81">
          <mxGeometry x="-0.2841" y="2" relative="1" as="geometry">
            <mxPoint x="26" y="-8" as="offset" />
          </mxGeometry>
        </mxCell>
        <mxCell id="udrvRcQNJmiuMP_l4bdY-83" value="" style="endArrow=classic;html=1;rounded=0;exitX=0.5;exitY=1;exitDx=0;exitDy=0;" edge="1" parent="1" source="udrvRcQNJmiuMP_l4bdY-18">
          <mxGeometry width="50" height="50" relative="1" as="geometry">
            <mxPoint x="590" y="290" as="sourcePoint" />
            <mxPoint x="550" y="220" as="targetPoint" />
          </mxGeometry>
        </mxCell>
        <mxCell id="udrvRcQNJmiuMP_l4bdY-84" value="" style="endArrow=classic;html=1;rounded=0;" edge="1" parent="1">
          <mxGeometry width="50" height="50" relative="1" as="geometry">
            <mxPoint x="610" y="249.5" as="sourcePoint" />
            <mxPoint x="720" y="249.5" as="targetPoint" />
          </mxGeometry>
        </mxCell>
        <mxCell id="udrvRcQNJmiuMP_l4bdY-85" value="подключение к бд" style="edgeLabel;html=1;align=center;verticalAlign=middle;resizable=0;points=[];" vertex="1" connectable="0" parent="udrvRcQNJmiuMP_l4bdY-84">
          <mxGeometry x="0.145" y="3" relative="1" as="geometry">
            <mxPoint x="-13" y="-7" as="offset" />
          </mxGeometry>
        </mxCell>
        <mxCell id="udrvRcQNJmiuMP_l4bdY-86" value="" style="endArrow=classic;html=1;rounded=0;exitX=0;exitY=0.5;exitDx=0;exitDy=0;" edge="1" parent="1" source="udrvRcQNJmiuMP_l4bdY-22">
          <mxGeometry width="50" height="50" relative="1" as="geometry">
            <mxPoint x="390" y="350" as="sourcePoint" />
            <mxPoint x="410" y="360" as="targetPoint" />
          </mxGeometry>
        </mxCell>
        <mxCell id="udrvRcQNJmiuMP_l4bdY-87" value="сохрание данных в &lt;br&gt;переменную &lt;br&gt;info_data" style="edgeLabel;html=1;align=center;verticalAlign=middle;resizable=0;points=[];" vertex="1" connectable="0" parent="udrvRcQNJmiuMP_l4bdY-86">
          <mxGeometry x="0.23" y="4" relative="1" as="geometry">
            <mxPoint x="-11" y="-34" as="offset" />
          </mxGeometry>
        </mxCell>
        <mxCell id="udrvRcQNJmiuMP_l4bdY-88" value="" style="endArrow=classic;html=1;rounded=0;" edge="1" parent="1">
          <mxGeometry width="50" height="50" relative="1" as="geometry">
            <mxPoint x="330" y="360" as="sourcePoint" />
            <mxPoint x="250" y="360" as="targetPoint" />
          </mxGeometry>
        </mxCell>
        <mxCell id="udrvRcQNJmiuMP_l4bdY-89" value="" style="endArrow=classic;html=1;rounded=0;exitX=0;exitY=0.5;exitDx=0;exitDy=0;" edge="1" parent="1" source="udrvRcQNJmiuMP_l4bdY-4">
          <mxGeometry width="50" height="50" relative="1" as="geometry">
            <mxPoint x="390" y="430" as="sourcePoint" />
            <mxPoint x="50" y="360" as="targetPoint" />
          </mxGeometry>
        </mxCell>
        <mxCell id="udrvRcQNJmiuMP_l4bdY-90" value="переадресация на &lt;br&gt;выбранный запрос" style="edgeLabel;html=1;align=center;verticalAlign=middle;resizable=0;points=[];" vertex="1" connectable="0" parent="udrvRcQNJmiuMP_l4bdY-89">
          <mxGeometry x="0.405" y="2" relative="1" as="geometry">
            <mxPoint x="-4" y="-32" as="offset" />
          </mxGeometry>
        </mxCell>
        <mxCell id="udrvRcQNJmiuMP_l4bdY-91" value="" style="endArrow=classic;html=1;rounded=0;" edge="1" parent="1">
          <mxGeometry width="50" height="50" relative="1" as="geometry">
            <mxPoint x="50" y="430" as="sourcePoint" />
            <mxPoint x="340" y="430" as="targetPoint" />
          </mxGeometry>
        </mxCell>
        <mxCell id="udrvRcQNJmiuMP_l4bdY-92" value="переход на findFreeTime" style="edgeLabel;html=1;align=center;verticalAlign=middle;resizable=0;points=[];" vertex="1" connectable="0" parent="udrvRcQNJmiuMP_l4bdY-91">
          <mxGeometry x="-0.2841" y="2" relative="1" as="geometry">
            <mxPoint x="26" y="-8" as="offset" />
          </mxGeometry>
        </mxCell>
        <mxCell id="udrvRcQNJmiuMP_l4bdY-93" value="" style="endArrow=classic;html=1;rounded=0;" edge="1" parent="1">
          <mxGeometry width="50" height="50" relative="1" as="geometry">
            <mxPoint x="320" y="640" as="sourcePoint" />
            <mxPoint x="240" y="640" as="targetPoint" />
          </mxGeometry>
        </mxCell>
        <mxCell id="udrvRcQNJmiuMP_l4bdY-94" value="переадресация" style="edgeLabel;html=1;align=center;verticalAlign=middle;resizable=0;points=[];" vertex="1" connectable="0" parent="udrvRcQNJmiuMP_l4bdY-93">
          <mxGeometry x="-0.07" y="1" relative="1" as="geometry">
            <mxPoint x="7" y="-21" as="offset" />
          </mxGeometry>
        </mxCell>
        <mxCell id="udrvRcQNJmiuMP_l4bdY-95" value="" style="endArrow=classic;html=1;rounded=0;exitX=1.011;exitY=0.884;exitDx=0;exitDy=0;exitPerimeter=0;" edge="1" parent="1" source="udrvRcQNJmiuMP_l4bdY-5">
          <mxGeometry width="50" height="50" relative="1" as="geometry">
            <mxPoint x="390" y="630" as="sourcePoint" />
            <mxPoint x="340" y="710" as="targetPoint" />
          </mxGeometry>
        </mxCell>
        <mxCell id="udrvRcQNJmiuMP_l4bdY-96" value="данные для запроса" style="edgeLabel;html=1;align=center;verticalAlign=middle;resizable=0;points=[];" vertex="1" connectable="0" parent="udrvRcQNJmiuMP_l4bdY-95">
          <mxGeometry x="0.2178" y="-2" relative="1" as="geometry">
            <mxPoint x="5" y="-17" as="offset" />
          </mxGeometry>
        </mxCell>
        <mxCell id="udrvRcQNJmiuMP_l4bdY-97" value="" style="endArrow=classic;html=1;rounded=0;" edge="1" parent="1">
          <mxGeometry width="50" height="50" relative="1" as="geometry">
            <mxPoint x="405" y="710" as="sourcePoint" />
            <mxPoint x="495" y="710" as="targetPoint" />
          </mxGeometry>
        </mxCell>
        <mxCell id="udrvRcQNJmiuMP_l4bdY-98" value="find_time()" style="edgeLabel;html=1;align=center;verticalAlign=middle;resizable=0;points=[];" vertex="1" connectable="0" parent="udrvRcQNJmiuMP_l4bdY-97">
          <mxGeometry x="-0.5156" y="3" relative="1" as="geometry">
            <mxPoint y="-17" as="offset" />
          </mxGeometry>
        </mxCell>
        <mxCell id="udrvRcQNJmiuMP_l4bdY-99" value="sql_provider" style="rounded=0;whiteSpace=wrap;html=1;" vertex="1" parent="1">
          <mxGeometry x="495" y="690" width="120" height="60" as="geometry" />
        </mxCell>
        <mxCell id="udrvRcQNJmiuMP_l4bdY-100" value="__enter__&lt;br&gt;DBconnection" style="rounded=0;whiteSpace=wrap;html=1;" vertex="1" parent="1">
          <mxGeometry x="495" y="790" width="120" height="60" as="geometry" />
        </mxCell>
        <mxCell id="udrvRcQNJmiuMP_l4bdY-101" value="db_config&amp;nbsp;&lt;br&gt;sql_statment" style="edgeLabel;html=1;align=center;verticalAlign=middle;resizable=0;points=[];" vertex="1" connectable="0" parent="1">
          <mxGeometry x="515" y="770" as="geometry" />
        </mxCell>
        <mxCell id="udrvRcQNJmiuMP_l4bdY-102" value="" style="endArrow=classic;html=1;rounded=0;exitX=0.5;exitY=1;exitDx=0;exitDy=0;" edge="1" parent="1">
          <mxGeometry width="50" height="50" relative="1" as="geometry">
            <mxPoint x="554.5" y="850" as="sourcePoint" />
            <mxPoint x="554.5" y="900" as="targetPoint" />
          </mxGeometry>
        </mxCell>
        <mxCell id="udrvRcQNJmiuMP_l4bdY-103" value="None" style="rounded=0;whiteSpace=wrap;html=1;" vertex="1" parent="1">
          <mxGeometry x="495" y="900" width="120" height="60" as="geometry" />
        </mxCell>
        <mxCell id="udrvRcQNJmiuMP_l4bdY-104" value="" style="endArrow=classic;html=1;rounded=0;exitX=0.5;exitY=1;exitDx=0;exitDy=0;" edge="1" parent="1" source="udrvRcQNJmiuMP_l4bdY-99">
          <mxGeometry width="50" height="50" relative="1" as="geometry">
            <mxPoint x="595" y="860" as="sourcePoint" />
            <mxPoint x="555" y="790" as="targetPoint" />
          </mxGeometry>
        </mxCell>
        <mxCell id="udrvRcQNJmiuMP_l4bdY-105" value="" style="endArrow=classic;html=1;rounded=0;" edge="1" parent="1">
          <mxGeometry width="50" height="50" relative="1" as="geometry">
            <mxPoint x="615" y="819.5" as="sourcePoint" />
            <mxPoint x="725" y="819.5" as="targetPoint" />
          </mxGeometry>
        </mxCell>
        <mxCell id="udrvRcQNJmiuMP_l4bdY-106" value="подключение к бд" style="edgeLabel;html=1;align=center;verticalAlign=middle;resizable=0;points=[];" vertex="1" connectable="0" parent="udrvRcQNJmiuMP_l4bdY-105">
          <mxGeometry x="0.145" y="3" relative="1" as="geometry">
            <mxPoint x="-13" y="-7" as="offset" />
          </mxGeometry>
        </mxCell>
        <mxCell id="udrvRcQNJmiuMP_l4bdY-107" value="" style="endArrow=classic;html=1;rounded=0;exitX=0;exitY=0.5;exitDx=0;exitDy=0;" edge="1" parent="1" source="udrvRcQNJmiuMP_l4bdY-103">
          <mxGeometry width="50" height="50" relative="1" as="geometry">
            <mxPoint x="395" y="920" as="sourcePoint" />
            <mxPoint x="415" y="930" as="targetPoint" />
          </mxGeometry>
        </mxCell>
        <mxCell id="udrvRcQNJmiuMP_l4bdY-108" value="сообщение о ненахождении&amp;nbsp;&lt;br&gt;подходящего времени" style="edgeLabel;html=1;align=center;verticalAlign=middle;resizable=0;points=[];" vertex="1" connectable="0" parent="udrvRcQNJmiuMP_l4bdY-107">
          <mxGeometry x="0.23" y="4" relative="1" as="geometry">
            <mxPoint x="-26" y="-34" as="offset" />
          </mxGeometry>
        </mxCell>
        <mxCell id="udrvRcQNJmiuMP_l4bdY-109" value="" style="endArrow=classic;html=1;rounded=0;" edge="1" parent="1">
          <mxGeometry width="50" height="50" relative="1" as="geometry">
            <mxPoint x="320" y="930" as="sourcePoint" />
            <mxPoint x="250" y="930" as="targetPoint" />
          </mxGeometry>
        </mxCell>
        <mxCell id="udrvRcQNJmiuMP_l4bdY-110" value="" style="endArrow=classic;html=1;rounded=0;" edge="1" parent="1">
          <mxGeometry width="50" height="50" relative="1" as="geometry">
            <mxPoint x="72" y="1010" as="sourcePoint" />
            <mxPoint x="362" y="1010" as="targetPoint" />
          </mxGeometry>
        </mxCell>
        <mxCell id="udrvRcQNJmiuMP_l4bdY-111" value="переход на findFloor" style="edgeLabel;html=1;align=center;verticalAlign=middle;resizable=0;points=[];" vertex="1" connectable="0" parent="udrvRcQNJmiuMP_l4bdY-110">
          <mxGeometry x="-0.2841" y="2" relative="1" as="geometry">
            <mxPoint x="26" y="-8" as="offset" />
          </mxGeometry>
        </mxCell>
      </root>
    </mxGraphModel>
  </diagram>
</mxfile>
